<?xml version="1.0" encoding="utf-8"?><svg width="96" height="95" viewBox="0 0 96 95" xmlns="http://www.w3.org/2000/svg" xmlns:xlink="http://www.w3.org/1999/xlink"><view id="envelope" viewBox="31 64 18 18"/><svg height="18" width="18" viewBox="0 0 18 18" x="31" y="64" xmlns="http://www.w3.org/2000/svg"><g stroke-width="1.5" fill="none" stroke="#212121" class="anc-icon-wrapper" stroke-linecap="round" stroke-linejoin="round"><path d="m1.75 5.75 6.767 3.733a1 1 0 0 0 .966 0L16.25 5.75"/><rect x="1.75" y="3.25" width="14.5" height="11.5" rx="2" ry="2" transform="rotate(180 9 9)"/></g></svg><view id="folder" viewBox="49 64 18 18"/><svg height="18" width="18" viewBox="0 0 18 18" x="49" y="64" xmlns="http://www.w3.org/2000/svg"><g stroke-width="1.5" fill="none" stroke="#212121" class="bnc-icon-wrapper" stroke-linecap="round" stroke-linejoin="round"><path d="M2.25 8.75v-4a2 2 0 0 1 2-2h1.951a2 2 0 0 1 1.56.748l.603.752h5.386a2 2 0 0 1 2 2v2.844"/><path d="M4.25 6.75h9.5a2 2 0 0 1 2 2v4.5a2 2 0 0 1-2 2h-9.5a2 2 0 0 1-2-2v-4.5a2 2 0 0 1 2-2Z"/></g></svg><view id="gameoflife" viewBox="0 64 31 31"/><svg width="31" height="31" viewBox="0 0 31 31" y="64" xmlns="http://www.w3.org/2000/svg"><path d="M11 1h9v9h-9zM21 11h9v9h-9zM1 21h9v9H1zM11 21h9v9h-9zM21 21h9v9h-9z"/></svg><view id="github" viewBox="0 0 32 32"/><svg width="32" height="32" viewBox="0 0 32 32" xmlns="http://www.w3.org/2000/svg"><path d="M16 2.345c7.735 0 14 6.265 14 14a14.022 14.022 0 0 1-9.537 13.282c-.7.14-.963-.298-.963-.665 0-.473.018-1.978.018-3.85 0-1.312-.437-2.152-.945-2.59 3.115-.35 6.388-1.54 6.388-6.912 0-1.54-.543-2.783-1.435-3.762.14-.35.63-1.785-.14-3.71 0 0-1.173-.385-3.85 1.435-1.12-.315-2.31-.472-3.5-.472s-2.38.157-3.5.472c-2.677-1.802-3.85-1.435-3.85-1.435-.77 1.925-.28 3.36-.14 3.71-.892.98-1.435 2.24-1.435 3.762 0 5.355 3.255 6.563 6.37 6.913-.403.35-.77.963-.893 1.872-.805.368-2.818.963-4.077-1.155-.263-.42-1.05-1.452-2.152-1.435-1.173.018-.472.665.017.927.595.332 1.277 1.575 1.435 1.978.28.787 1.19 2.293 4.707 1.645 0 1.173.018 2.275.018 2.607 0 .368-.263.787-.963.665A13.992 13.992 0 0 1 2 16.344c0-7.735 6.265-14 14-14Z"/></svg><view id="home" viewBox="67 64 18 18"/><svg height="18" width="18" viewBox="0 0 18 18" x="67" y="64" xmlns="http://www.w3.org/2000/svg"><g stroke-width="1.5" fill="none" stroke="#212121" class="enc-icon-wrapper" stroke-linecap="round" stroke-linejoin="round"><path d="M5.75 15.75V11c0-.69.56-1.25 1.25-1.25h0c.69 0 1.25.56 1.25 1.25v4.75M10.75 9.75h1.5"/><path d="M2.655 6.45 9 1.75l6.345 4.7a1 1 0 0 1 .405.804v6.496a2 2 0 0 1-2 2h-9.5a2 2 0 0 1-2-2V7.254a1 1 0 0 1 .405-.804ZM13.75 2.75v2.519"/></g></svg><view id="linkedin" viewBox="32 0 32 32"/><svg width="32" height="32" viewBox="0 0 32 32" x="32" xmlns="http://www.w3.org/2000/svg"><path d="M26.111 3H5.889A2.89 2.89 0 0 0 3 5.889v20.222A2.89 2.89 0 0 0 5.889 29h20.222A2.89 2.89 0 0 0 29 26.111V5.889A2.89 2.89 0 0 0 26.111 3Zm-15.25 22.389H6.984V12.87h3.877v12.519ZM8.904 11.231c-1.267 0-2.293-1.034-2.293-2.31s1.026-2.31 2.293-2.31 2.292 1.034 2.292 2.31-1.026 2.31-2.292 2.31Zm16.485 14.158h-3.858v-6.571c0-1.802-.685-2.809-2.111-2.809-1.551 0-2.362 1.048-2.362 2.809v6.571H13.34V12.87h3.718v1.686s1.118-2.069 3.775-2.069 4.556 1.621 4.556 4.975v7.926Z" fill-rule="evenodd"/></svg><view id="mastodon" viewBox="0 32 32 32"/><svg width="32" height="32" viewBox="0 0 32 32" y="32" xmlns="http://www.w3.org/2000/svg"><path d="M30.116 7.642c-.438-3.223-3.278-5.764-6.645-6.256-.568-.083-2.72-.386-7.705-.386h-.037c-4.987 0-6.056.303-6.624.386-3.273.479-6.262 2.761-6.987 6.023-.349 1.606-.386 3.387-.321 5.02.092 2.343.11 4.681.325 7.014a32.74 32.74 0 0 0 .776 4.601c.689 2.795 3.48 5.121 6.214 6.07a16.831 16.831 0 0 0 9.091.474c.332-.076.66-.165.984-.266.732-.23 1.591-.488 2.222-.941a.069.069 0 0 0 .029-.055v-2.261c0-.01-.003-.02-.007-.029a.06.06 0 0 0-.019-.023.084.084 0 0 0-.027-.013.076.076 0 0 0-.03 0 25.466 25.466 0 0 1-5.899.682c-3.419 0-4.339-1.605-4.602-2.273a6.974 6.974 0 0 1-.4-1.792c0-.01.001-.021.006-.03a.063.063 0 0 1 .019-.024.072.072 0 0 1 .059-.013c1.9.453 3.848.682 5.803.682.47 0 .939 0 1.409-.012 1.966-.055 4.038-.154 5.972-.528.048-.01.097-.018.138-.03 3.051-.579 5.954-2.398 6.249-7.004.011-.181.039-1.899.039-2.088.001-.64.208-4.536-.03-6.931ZM25.42 19.135h-3.208v-7.772c0-1.636-.689-2.471-2.091-2.471-1.541 0-2.313.987-2.313 2.937v4.254h-3.189v-4.254c0-1.95-.773-2.937-2.315-2.937-1.394 0-2.09.834-2.091 2.471v7.772H7.008v-8.008c0-1.636.422-2.936 1.267-3.9.871-.961 2.014-1.455 3.433-1.455 1.642 0 2.883.624 3.71 1.872l.798 1.325.8-1.325c.827-1.248 2.068-1.872 3.707-1.872 1.417 0 2.56.494 3.434 1.455.845.963 1.267 2.263 1.267 3.9l-.003 8.008Z"/></svg><view id="rss" viewBox="32 32 32 32"/><svg width="32" height="32" viewBox="0 0 32 32" x="32" y="32" xmlns="http://www.w3.org/2000/svg"><circle cx="6.566" cy="25.434" r="3.566"/><path d="M20.234 29h-5.051c0-6.728-5.454-12.183-12.183-12.183v-5.051c9.518 0 17.234 7.716 17.234 17.234Z"/><path d="M23.8 29C23.8 17.512 14.488 8.2 3 8.2V3c14.359 0 26 11.641 26 26h-5.2Z"/></svg><view id="twitter" viewBox="64 0 32 32"/><svg width="32" height="32" viewBox="0 0 32 32" x="64" xmlns="http://www.w3.org/2000/svg"><path d="M18.42 14.009 27.891 3h-2.244l-8.224 9.559L10.855 3H3.28l9.932 14.455L3.28 29h2.244l8.684-10.095L21.144 29h7.576L18.419 14.009Zm-3.074 3.573-1.006-1.439L6.333 4.69H9.78l6.462 9.243 1.006 1.439 8.4 12.015h-3.447l-6.854-9.804Z"/></svg><view id="youtube" viewBox="64 32 32 32"/><svg width="32" height="32" viewBox="0 0 32 32" x="64" y="32" xmlns="http://www.w3.org/2000/svg"><path d="M31.331 8.248A4.022 4.022 0 0 0 28.502 5.4C26.006 4.727 16 4.727 16 4.727s-10.007 0-12.502.673A4.02 4.02 0 0 0 .669 8.248C0 10.76 0 16 0 16s0 5.241.669 7.752a4.018 4.018 0 0 0 2.829 2.847c2.496.673 12.502.673 12.502.673s10.007 0 12.502-.673a4.02 4.02 0 0 0 2.829-2.847C32 21.24 32 16 32 16s0-5.24-.669-7.752Zm-18.604 12.51v-9.516L21.091 16l-8.364 4.758Z"/></svg></svg>