<?xml version="1.0" encoding="utf-8"?><!DOCTYPE svg PUBLIC "-//W3C//DTD SVG 1.1//EN" "http://www.w3.org/Graphics/SVG/1.1/DTD/svg11.dtd"><svg width="8000" height="6000" viewBox="0 0 8000 6000" xmlns="http://www.w3.org/2000/svg" xmlns:xlink="http://www.w3.org/1999/xlink"><view id="envelope" viewBox="0 0 2000 2000"/><svg width="2000" height="2000" fill="none" stroke="currentColor" stroke-width="2" stroke-linecap="round" stroke-linejoin="round" class="alucide alucide-mail" viewBox="0 0 24 24" xmlns="http://www.w3.org/2000/svg"><rect width="20" height="16" x="2" y="4" rx="2"/><path d="m22 7-8.97 5.7a1.94 1.94 0 0 1-2.06 0L2 7"/></svg><view id="folder" viewBox="2000 0 2000 2000"/><svg width="2000" height="2000" fill="none" stroke="currentColor" stroke-width="2" stroke-linecap="round" stroke-linejoin="round" class="blucide blucide-folder" viewBox="0 0 24 24" x="2000" xmlns="http://www.w3.org/2000/svg"><path d="M20 20a2 2 0 0 0 2-2V8a2 2 0 0 0-2-2h-7.9a2 2 0 0 1-1.69-.9L9.6 3.9A2 2 0 0 0 7.93 3H4a2 2 0 0 0-2 2v13a2 2 0 0 0 2 2Z"/></svg><view id="gameoflife" viewBox="0 2000 2000 2000"/><svg width="2000" height="2000" viewBox="0 0 31 31" y="2000" xmlns="http://www.w3.org/2000/svg"><path d="M11 1h9v9h-9zM21 11h9v9h-9zM1 21h9v9H1zM11 21h9v9h-9zM21 21h9v9h-9z"/></svg><view id="github" viewBox="2000 2000 2000 2000"/><svg width="2000" height="2000" viewBox="0 0 32 32" x="2000" y="2000" xmlns="http://www.w3.org/2000/svg"><path d="M16 2.345c7.735 0 14 6.265 14 14a14.022 14.022 0 0 1-9.537 13.282c-.7.14-.963-.298-.963-.665 0-.473.018-1.978.018-3.85 0-1.312-.437-2.152-.945-2.59 3.115-.35 6.388-1.54 6.388-6.912 0-1.54-.543-2.783-1.435-3.762.14-.35.63-1.785-.14-3.71 0 0-1.173-.385-3.85 1.435-1.12-.315-2.31-.472-3.5-.472s-2.38.157-3.5.472c-2.677-1.802-3.85-1.435-3.85-1.435-.77 1.925-.28 3.36-.14 3.71-.892.98-1.435 2.24-1.435 3.762 0 5.355 3.255 6.563 6.37 6.913-.403.35-.77.963-.893 1.872-.805.368-2.818.963-4.077-1.155-.263-.42-1.05-1.452-2.152-1.435-1.173.018-.472.665.017.927.595.332 1.277 1.575 1.435 1.978.28.787 1.19 2.293 4.707 1.645 0 1.173.018 2.275.018 2.607 0 .368-.263.787-.963.665A13.992 13.992 0 0 1 2 16.344c0-7.735 6.265-14 14-14Z"/></svg><view id="hackster" viewBox="4000 0 2000 2000"/><svg width="2000" height="2000" xml:space="preserve" style="fill-rule:evenodd;clip-rule:evenodd;stroke-linejoin:round;stroke-miterlimit:2" viewBox="0 -3 36 36" x="4000" xmlns="http://www.w3.org/2000/svg"><path d="M614.167 344.967c8.733 0 16 6.966 16 15.966v71.834c0 10.666 8.666 19.4 19.333 19.4h142c9.833 0 11.833 14.2 2.267 16.8l-285.6 82.266c-8.267 2.434-16.967-2.266-19.367-10.566-.433-1.434-.7-2.934-.633-4.434v-75.066c-.067-3.834-3.134-6.967-6.967-7H168.067c-3.8-.034-6.9-3.1-6.967-6.9v-84.334c.033-11.766-9.333-21.433-21.133-21.666L6.7 338.933c-7.833-.333-9.267-11.333-1.733-13.6l292-84.3c3.7-.966 7.5 1.234 8.466 4.867.134.533.234 1.1.234 1.767v81.366c0 8.667 7.233 15.934 15.966 15.934h292.534ZM292.933 151.433c10.167-1.733 12.5 11.6 12.5 11.6s.834 31.567 0 44.6c-.9 13-12.766 12.5-12.766 12.5H176.8s-10.5-3.766-11.9-17.4c-1.767-13.6 14.467-21.2 14.467-21.2s103.466-28.366 113.5-30.1h.066Zm196.167-36.8s-1.5-15.366 15.7-22C521.867 86.267 613.733 62.5 613.733 62.5s17.067-6.667 18.234 15.7c1.166 22.267 0 205.933 0 205.933s.6 15.034-15.634 16.2c-16.266 1.167-107.5 0-107.5 0s-19.733 1.767-19.733-13.9v-171.8Zm2.6 477.734c.833-13.034 12.767-12.5 12.5-12.8h115.833s10.167 3.766 11.9 17.4c1.767 13.6-14.533 21.166-14.533 21.166S514 646.5 503.867 648.2c-10.167 2.067-12.167-11.3-12.167-11.3s-.833-31.5 0-44.533Zm-183.933 93s1.7 15.366-15.7 22c-17.1 6.333-108.934 30.1-108.934 30.1S166 744.167 164.9 721.8c-1.167-22.267 0-205.933 0-205.933s-.6-15.034 15.633-16.2c16.234-1.167 107.5 0 107.5 0s17.634-1.767 19.734 13.9c1.966 15.333 0 26.333 0 26.333v145.467Z" style="fill-rule:nonzero" transform="matrix(.0443 0 0 .0443 -.001 -2.727)"/></svg><view id="home" viewBox="4000 2000 2000 2000"/><svg width="2000" height="2000" fill="none" stroke="currentColor" stroke-width="2" stroke-linecap="round" stroke-linejoin="round" class="flucide flucide-house" viewBox="0 0 24 24" x="4000" y="2000" xmlns="http://www.w3.org/2000/svg"><path d="M15 21v-8a1 1 0 0 0-1-1h-4a1 1 0 0 0-1 1v8"/><path d="M3 10a2 2 0 0 1 .709-1.528l7-5.999a2 2 0 0 1 2.582 0l7 5.999A2 2 0 0 1 21 10v9a2 2 0 0 1-2 2H5a2 2 0 0 1-2-2z"/></svg><view id="linkedin" viewBox="0 4000 2000 2000"/><svg width="2000" height="2000" viewBox="0 0 32 32" y="4000" xmlns="http://www.w3.org/2000/svg"><path d="M26.111 3H5.889A2.89 2.89 0 0 0 3 5.889v20.222A2.89 2.89 0 0 0 5.889 29h20.222A2.89 2.89 0 0 0 29 26.111V5.889A2.89 2.89 0 0 0 26.111 3Zm-15.25 22.389H6.984V12.87h3.877v12.519ZM8.904 11.231c-1.267 0-2.293-1.034-2.293-2.31s1.026-2.31 2.293-2.31 2.292 1.034 2.292 2.31-1.026 2.31-2.292 2.31Zm16.485 14.158h-3.858v-6.571c0-1.802-.685-2.809-2.111-2.809-1.551 0-2.362 1.048-2.362 2.809v6.571H13.34V12.87h3.718v1.686s1.118-2.069 3.775-2.069 4.556 1.621 4.556 4.975v7.926Z" fill-rule="evenodd"/></svg><view id="mastodon" viewBox="2000 4000 2000 2000"/><svg width="2000" height="2000" viewBox="0 0 32 32" x="2000" y="4000" xmlns="http://www.w3.org/2000/svg"><path d="M30.116 7.642c-.438-3.223-3.278-5.764-6.645-6.256-.568-.083-2.72-.386-7.705-.386h-.037c-4.987 0-6.056.303-6.624.386-3.273.479-6.262 2.761-6.987 6.023-.349 1.606-.386 3.387-.321 5.02.092 2.343.11 4.681.325 7.014a32.74 32.74 0 0 0 .776 4.601c.689 2.795 3.48 5.121 6.214 6.07a16.831 16.831 0 0 0 9.091.474c.332-.076.66-.165.984-.266.732-.23 1.591-.488 2.222-.941a.069.069 0 0 0 .029-.055v-2.261c0-.01-.003-.02-.007-.029a.06.06 0 0 0-.019-.023.084.084 0 0 0-.027-.013.076.076 0 0 0-.03 0 25.466 25.466 0 0 1-5.899.682c-3.419 0-4.339-1.605-4.602-2.273a6.974 6.974 0 0 1-.4-1.792c0-.01.001-.021.006-.03a.063.063 0 0 1 .019-.024.072.072 0 0 1 .059-.013c1.9.453 3.848.682 5.803.682.47 0 .939 0 1.409-.012 1.966-.055 4.038-.154 5.972-.528.048-.01.097-.018.138-.03 3.051-.579 5.954-2.398 6.249-7.004.011-.181.039-1.899.039-2.088.001-.64.208-4.536-.03-6.931ZM25.42 19.135h-3.208v-7.772c0-1.636-.689-2.471-2.091-2.471-1.541 0-2.313.987-2.313 2.937v4.254h-3.189v-4.254c0-1.95-.773-2.937-2.315-2.937-1.394 0-2.09.834-2.091 2.471v7.772H7.008v-8.008c0-1.636.422-2.936 1.267-3.9.871-.961 2.014-1.455 3.433-1.455 1.642 0 2.883.624 3.71 1.872l.798 1.325.8-1.325c.827-1.248 2.068-1.872 3.707-1.872 1.417 0 2.56.494 3.434 1.455.845.963 1.267 2.263 1.267 3.9l-.003 8.008Z"/></svg><view id="printables" viewBox="4000 4000 2000 2000"/><svg width="2000" height="2000" xml:space="preserve" style="fill-rule:evenodd;clip-rule:evenodd;stroke-linejoin:round;stroke-miterlimit:2" viewBox="-5 0 32 32" x="4000" y="4000" xmlns="http://www.w3.org/2000/svg"><path d="M100 0c-7.404-.274-6.893 114.745 0 115l100-58L100 0ZM0 172.474v115l100-58-100-57Z" style="fill-rule:nonzero" transform="matrix(.10797 0 0 .10797 0 0)"/><path d="M0 0c-6.355-.771-7.465 113.966 0 115l100-58L0 0Z" style="fill-rule:nonzero" transform="rotate(179.651 5.398 6.208) scale(.10797)"/><path d="M100 57v115c4.237 10.064 104.237-47.936 100-58 .363-18.077-93.84-63.871-100-57Z" style="fill-rule:nonzero" transform="matrix(-.10797 0 0 -.10797 32.39 24.725)"/><path d="M100 115v115l100-58c3.364-2.43-93.994-61.338-100-57Z" style="fill-rule:nonzero" transform="matrix(.10797 0 0 .10797 0 0)"/></svg><view id="rss" viewBox="6000 0 2000 2000"/><svg width="2000" height="2000" fill="none" stroke="currentColor" stroke-width="2" stroke-linecap="round" stroke-linejoin="round" class="jlucide jlucide-rss" viewBox="0 0 24 24" x="6000" xmlns="http://www.w3.org/2000/svg"><path d="M4 11a9 9 0 0 1 9 9M4 4a16 16 0 0 1 16 16"/><circle cx="5" cy="19" r="1"/></svg><view id="twitter" viewBox="6000 2000 2000 2000"/><svg width="2000" height="2000" viewBox="0 0 32 32" x="6000" y="2000" xmlns="http://www.w3.org/2000/svg"><path d="M18.42 14.009 27.891 3h-2.244l-8.224 9.559L10.855 3H3.28l9.932 14.455L3.28 29h2.244l8.684-10.095L21.144 29h7.576L18.419 14.009Zm-3.074 3.573-1.006-1.439L6.333 4.69H9.78l6.462 9.243 1.006 1.439 8.4 12.015h-3.447l-6.854-9.804Z"/></svg><view id="youtube" viewBox="6000 4000 2000 2000"/><svg width="2000" height="2000" viewBox="0 0 32 32" x="6000" y="4000" xmlns="http://www.w3.org/2000/svg"><path d="M31.331 8.248A4.022 4.022 0 0 0 28.502 5.4C26.006 4.727 16 4.727 16 4.727s-10.007 0-12.502.673A4.02 4.02 0 0 0 .669 8.248C0 10.76 0 16 0 16s0 5.241.669 7.752a4.018 4.018 0 0 0 2.829 2.847c2.496.673 12.502.673 12.502.673s10.007 0 12.502-.673a4.02 4.02 0 0 0 2.829-2.847C32 21.24 32 16 32 16s0-5.24-.669-7.752Zm-18.604 12.51v-9.516L21.091 16l-8.364 4.758Z"/></svg></svg>