<?xml version="1.0" encoding="UTF-8" standalone="no"?>
<!DOCTYPE svg PUBLIC "-//W3C//DTD SVG 1.1//EN" "http://www.w3.org/Graphics/SVG/1.1/DTD/svg11.dtd">
<svg width="36" height="30" viewBox="0 0 36 30" version="1.1" xmlns="http://www.w3.org/2000/svg" xmlns:xlink="http://www.w3.org/1999/xlink" xml:space="preserve" xmlns:serif="http://www.serif.com/" style="fill-rule:evenodd;clip-rule:evenodd;stroke-linejoin:round;stroke-miterlimit:2;">
    <g transform="matrix(1,0,0,1,-382.285,-61.5701)">
        <g transform="matrix(0.0442959,0,0,0.0442959,382.284,58.8428)">
            <path d="M614.167,344.967C622.9,344.967 630.167,351.933 630.167,360.933L630.167,432.767C630.167,443.433 638.833,452.167 649.5,452.167L791.5,452.167C801.333,452.167 803.333,466.367 793.767,468.967L508.167,551.233C499.9,553.667 491.2,548.967 488.8,540.667C488.367,539.233 488.1,537.733 488.167,536.233L488.167,461.167C488.1,457.333 485.033,454.2 481.2,454.167L168.067,454.167C164.267,454.133 161.167,451.067 161.1,447.267L161.1,362.933C161.133,351.167 151.767,341.5 139.967,341.267L6.7,338.933C-1.133,338.6 -2.567,327.6 4.967,325.333L296.967,241.033C300.667,240.067 304.467,242.267 305.433,245.9C305.567,246.433 305.667,247 305.667,247.667L305.667,329.033C305.667,337.7 312.9,344.967 321.633,344.967L614.167,344.967ZM292.933,151.433C303.1,149.7 305.433,163.033 305.433,163.033C305.433,163.033 306.267,194.6 305.433,207.633C304.533,220.633 292.667,220.133 292.667,220.133L176.8,220.133C176.8,220.133 166.3,216.367 164.9,202.733C163.133,189.133 179.367,181.533 179.367,181.533C179.367,181.533 282.833,153.167 292.867,151.433L292.933,151.433ZM489.1,114.633C489.1,114.633 487.6,99.267 504.8,92.633C521.867,86.267 613.733,62.5 613.733,62.5C613.733,62.5 630.8,55.833 631.967,78.2C633.133,100.467 631.967,284.133 631.967,284.133C631.967,284.133 632.567,299.167 616.333,300.333C600.067,301.5 508.833,300.333 508.833,300.333C508.833,300.333 489.1,302.1 489.1,286.433L489.1,114.633ZM491.7,592.367C492.533,579.333 504.467,579.867 504.2,579.567L620.033,579.567C620.033,579.567 630.2,583.333 631.933,596.967C633.7,610.567 617.4,618.133 617.4,618.133C617.4,618.133 514,646.5 503.867,648.2C493.7,650.267 491.7,636.9 491.7,636.9C491.7,636.9 490.867,605.4 491.7,592.367ZM307.767,685.367C307.767,685.367 309.467,700.733 292.067,707.367C274.967,713.7 183.133,737.467 183.133,737.467C183.133,737.467 166,744.167 164.9,721.8C163.733,699.533 164.9,515.867 164.9,515.867C164.9,515.867 164.3,500.833 180.533,499.667C196.767,498.5 288.033,499.667 288.033,499.667C288.033,499.667 305.667,497.9 307.767,513.567C309.733,528.9 307.767,539.9 307.767,539.9L307.767,685.367Z" style="fill-rule:nonzero;"/>
        </g>
    </g>
</svg>
