<?xml version="1.0" encoding="utf-8"?><svg width="6000" height="4000" viewBox="0 0 6000 4000" xmlns="http://www.w3.org/2000/svg" xmlns:xlink="http://www.w3.org/1999/xlink"><view id="archive" viewBox="0 0 2000 2000"/><svg width="2000" height="2000" fill="none" stroke="currentColor" stroke-width="2" stroke-linecap="round" stroke-linejoin="round" class="alucide alucide-archive" viewBox="0 0 24 24" xmlns="http://www.w3.org/2000/svg"><rect width="20" height="5" x="2" y="3" rx="1"/><path d="M4 8v11a2 2 0 0 0 2 2h12a2 2 0 0 0 2-2V8M10 12h4"/></svg><view id="circle-user-round" viewBox="2000 0 2000 2000"/><svg width="2000" height="2000" fill="none" stroke="currentColor" stroke-width="2" stroke-linecap="round" stroke-linejoin="round" class="blucide blucide-circle-user-round" viewBox="0 0 24 24" x="2000" xmlns="http://www.w3.org/2000/svg"><path d="M18 20a6 6 0 0 0-12 0"/><circle cx="12" cy="10" r="4"/><circle cx="12" cy="12" r="10"/></svg><view id="settings" viewBox="0 2000 2000 2000"/><svg width="2000" height="2000" fill="none" stroke="currentColor" stroke-width="2" stroke-linecap="round" stroke-linejoin="round" class="clucide clucide-settings" viewBox="0 0 24 24" y="2000" xmlns="http://www.w3.org/2000/svg"><path d="M12.22 2h-.44a2 2 0 0 0-2 2v.18a2 2 0 0 1-1 1.73l-.43.25a2 2 0 0 1-2 0l-.15-.08a2 2 0 0 0-2.73.73l-.22.38a2 2 0 0 0 .73 2.73l.15.1a2 2 0 0 1 1 1.72v.51a2 2 0 0 1-1 1.74l-.15.09a2 2 0 0 0-.73 2.73l.22.38a2 2 0 0 0 2.73.73l.15-.08a2 2 0 0 1 2 0l.43.25a2 2 0 0 1 1 1.73V20a2 2 0 0 0 2 2h.44a2 2 0 0 0 2-2v-.18a2 2 0 0 1 1-1.73l.43-.25a2 2 0 0 1 2 0l.15.08a2 2 0 0 0 2.73-.73l.22-.39a2 2 0 0 0-.73-2.73l-.15-.08a2 2 0 0 1-1-1.74v-.5a2 2 0 0 1 1-1.74l.15-.09a2 2 0 0 0 .73-2.73l-.22-.38a2 2 0 0 0-2.73-.73l-.15.08a2 2 0 0 1-2 0l-.43-.25a2 2 0 0 1-1-1.73V4a2 2 0 0 0-2-2z"/><circle cx="12" cy="12" r="3"/></svg><view id="star" viewBox="2000 2000 2000 2000"/><svg width="2000" height="2000" fill="none" stroke="currentColor" stroke-width="2" stroke-linecap="round" stroke-linejoin="round" class="dlucide dlucide-star" viewBox="0 0 24 24" x="2000" y="2000" xmlns="http://www.w3.org/2000/svg"><path d="m12 2 3.09 6.26L22 9.27l-5 4.87 1.18 6.88L12 17.77l-6.18 3.25L7 14.14 2 9.27l6.91-1.01L12 2z"/></svg><view id="trash-2" viewBox="4000 0 2000 2000"/><svg width="2000" height="2000" fill="none" stroke="currentColor" stroke-width="2" stroke-linecap="round" stroke-linejoin="round" class="elucide elucide-trash-2" viewBox="0 0 24 24" x="4000" xmlns="http://www.w3.org/2000/svg"><path d="M3 6h18M19 6v14c0 1-1 2-2 2H7c-1 0-2-1-2-2V6M8 6V4c0-1 1-2 2-2h4c1 0 2 1 2 2v2M10 11v6M14 11v6"/></svg></svg>